<svg xmlns="http://www.w3.org/2000/svg" width="239" height="245" viewBox="0 0 239 245"><path d="M239.4 122.7c0 21 .1 42-.1 63a59.8 59.8 0 0 1-60.3 59.2H59.9a60.2 60.2 0 0 1-58.8-46.3 57.9 57.9 0 0 1-1.6-13.8c0-41.4-.1-82.8.1-124.2 0-18 6.9-33.1 20.3-45.1A58.3 58.3 0 0 1 49.3 1.3 65.6 65.6 0 0 1 60.1.4h119a60.1 60.1 0 0 1 60.3 60.5c-.1 20.6 0 41.2 0 61.8zm-18.7.1V69.4a46.9 46.9 0 0 0-3.9-18.8A50.3 50.3 0 0 0 197 27.2a48.5 48.5 0 0 0-26.1-7.7q-51-.2-102 0l-6.2.3a49 49 0 0 0-29.1 14c-10.3 10-15.4 22.3-15.4 36.7-.1 34.8 0 69.6 0 104.4a55.4 55.4 0 0 0 1 10.7 49.1 49.1 0 0 0 12.4 24c10.2 10.8 22.8 16.3 37.6 16.3h100.5a44.8 44.8 0 0 0 7.3-.5 48.1 48.1 0 0 0 24.7-10.6c12.4-10.2 18.8-23.3 19-39.3.1-17.6 0-35.2 0-52.7z"/><path d="M119.6 61.3A61.4 61.4 0 1 1 58.1 121a61.3 61.3 0 0 1 61.5-59.7zm45 63.5c0-11.2-2.4-19.7-7.4-27.4-8-12.2-19.2-19.2-33.8-20.8a40.9 40.9 0 0 0-13.5.9 44.1 44.1 0 0 0-24 14.3c-9.1 10.5-12.8 22.7-11.3 36.5a41.7 41.7 0 0 0 5.8 17.5c9.9 16.4 24.4 24.3 43.6 22.8a40.9 40.9 0 0 0 24.1-10.2c10.9-9.4 16.2-21.3 16.5-33.6zm0-65.9A18.5 18.5 0 1 1 183 77.3a18.5 18.5 0 0 1-18.4-18.4z"/></svg>