<svg xmlns="http://www.w3.org/2000/svg" width="812" height="369" viewBox="0 0 812 369"><g fill="#69c642"><path d="M248.5 140.5c-16 11-35.3 20.7-28 66 14.3 88.9-1.7 130.6-27.3 148.1l-1.9 1.6a57.7 57.7 0 0 1-11 6.7c-23.7 10.8-57.6 7.4-92.4-6.6a152.6 152.6 0 0 1-25.7-15.7c-74.7-56.9-82.8-172.5-18-257.7S222.6-25.4 297.3 31.5a140.8 140.8 0 0 1 15.4 13.4l-6.2-.4c-3-.1-5.8-.2-8.7-.1h-3.4l-4.3-3.4c-25.6-19.4-56.1-28.7-87.6-28.7-53.8 0-110.3 27.4-148.7 77.9C-7 170.1 0 278.2 69.5 331a154.6 154.6 0 0 0 24.3 15.4c19.6 9.8 40.9 14.4 65.7 12.7 15.7-1.1 30.2-9.2 38.6-22.5s12.6-30.2 13.4-54.1c3-89-16-126-36-112s-28 45-33 54-27 27-47 15-11-77 35-105 63 5 63 5 13-92 113-88-42 78-58 89z"/><path d="M184.6 355.5c-42 19.2-101.3-13-103.1-14 4.2 1.8 8.2 3.4 12.3 4.9 26 13 54.7 16.8 90.8 9.1zM195 353c-1.2 1.1-2.4 2.2-3.7 3.2l-5.7 1.3-3.2.6a45.3 45.3 0 0 0 6.4-3.6z"/><path d="M195 353a55 55 0 0 1-14.7 9.9c-40.9 11.3-92.1-16.5-93.8-17.4 37.1 15.6 71 21.9 94.9 10.6l3.2-.6c3.4-.7 6.9-1.6 10.4-2.5zM340.9 83.9l-.6-1a95.5 95.5 0 0 1-7.8 7.8 1.9 1.9 0 0 0-.5 2.3l.5 1a164 164 0 0 1 14.7 68.8c0 40.3-13.6 82.6-41.4 119.1-26.2 34.5-60.9 58.2-97.4 69.8a1.5 1.5 0 0 0-.9.6 60 60 0 0 1-12.4 11.4 2 2 0 0 0 1.5 3.6 204.4 204.4 0 0 0 45.9-16.7 213.2 213.2 0 0 0 72.8-61.5c48.6-63.8 56.3-144.7 25.6-205.2z"/></g><path d="M417.3 130v-29h-4.7v-6h4.7V83.3h6.5V95h5.8v6h-5.8v29zm41.7 0v-19c0-7.5-2.9-10.9-8.7-10.9s-9.2 4.1-9.2 10.9v19h-6.5V83.3h6.5v15.5h.1c2.1-3.1 5.5-4.7 9.8-4.7 8.3 0 14.6 5.3 14.6 14.9v21zm20.2-14.7c1.5 5.8 6.1 9.5 11.5 9.5a11.1 11.1 0 0 0 9.9-5.8h6.6a17.9 17.9 0 0 1-16.8 11.8c-9.8 0-17.7-8.7-17.7-18 0-11 8.3-18.7 17.6-18.7a17.7 17.7 0 0 1 18 18 18.3 18.3 0 0 1-.2 3.2zm22.6-5a11.4 11.4 0 0 0-22.6 0zm-109.6 26.4v-15.3h8.5v15.3zm0 74.3v-66.2h8.5V211zm73.9 0v-37c0-14.8-8.9-23.3-20.6-23.3s-20.6 9.8-20.6 22.7V211h-8.5v-66.2h8.5v8.4h.2c4.2-6.4 11.7-10.1 20.3-10.1 18.3 0 29.2 12.6 29.2 30.9v37zm82.5 0v-11.7h-.2c-5.8 8.6-15.5 13.2-25.8 13.2-19.8 0-35.6-15-35.6-34.8s16.3-34.6 35.6-34.6c10.3 0 20.1 4.8 25.8 13h.2v-34.7h8.5V211zm.5-33.1c0-14.7-11.5-27.2-26.6-27.2s-27 11.7-27 27.3 11.4 26.9 27.1 26.9a26.7 26.7 0 0 0 26.5-27zm21.2.4c0-19.5 15.7-35.2 34.5-35.2s34.7 16.2 34.7 34.7-16.1 34.7-34.7 34.7-34.5-15.8-34.5-34.2zm60.7-.9c0-14.4-11.6-26.7-26.2-26.7s-26 12.5-26 27.5 11.7 26.7 26.1 26.7 26.1-12.3 26.1-27.5zm18.5.9c0-19.5 15.8-35.2 34.5-35.2a35.1 35.1 0 0 1 34.8 34.7c0 19.2-16.1 34.7-34.8 34.7s-34.5-15.8-34.5-34.2zm60.8-.9c0-14.4-11.6-26.7-26.3-26.7s-26 12.5-26 27.5 11.8 26.7 26.2 26.7 26.1-12.3 26.1-27.5zm21.3 33.6v-66.2h8.5v9.5h.2c2.9-6.9 8-10.6 18.6-11.2v8.9h-.1c-12.2 1.2-18.7 9.2-18.7 19.9V211zm-282.4 78.9h-.3c-4.7 8.7-14.8 13.6-25.5 13.6a34.4 34.4 0 0 1-34.6-34.3c0-19.4 15.6-35.1 34.6-35.1 10.7 0 20.1 4.9 25.5 13.5h.3v-11.8h8.4v59.1c0 24-17.4 33.1-32.3 33.1s-29.4-9-33.8-24.4h8.9c4.4 10.8 13.3 16.7 24.8 16.7 15 0 24-10.1 24-24.2zm.5-21c0-14.4-11.4-27.2-26.4-27.2s-26 12.5-26 27.2 11.3 27 26.1 27 26.3-12.7 26.3-27zm82.7 33.1v-11.7h-.2c-5.5 8.3-15 13.2-25.8 13.2-19.8 0-35.6-15-35.6-34.8s16.2-34.6 35.6-34.6c11 0 20.5 4.9 25.8 13.3h.2v-11.6h8.5V302zm.5-33.1c0-14.7-11.6-27.2-26.6-27.2s-27 11.6-27 27.3 11.5 26.9 27.1 26.9a26.7 26.7 0 0 0 26.5-27zm23.4 33.1v-66.2h8.4v9.5h.3c2.9-6.9 8-10.6 18.6-11.2v8.9h-.1c-12.2 1.2-18.8 9.2-18.8 19.9V302zm94 0v-11.7h-.3a30.6 30.6 0 0 1-25.7 13.2c-19.9 0-35.6-15-35.6-34.8s16.2-34.6 35.6-34.6a31.3 31.3 0 0 1 25.7 13h.3v-34.7h8.4V302zm.5-33.1c0-14.7-11.5-27.2-26.7-27.2s-26.9 11.7-26.9 27.3 11.3 26.9 27.1 26.9a26.7 26.7 0 0 0 26.5-27zm29.4 3c.7 13.2 12.8 24 25.6 24 10.3 0 20.1-5.9 23.7-15.6h9a34.4 34.4 0 0 1-67-11.4c0-19.2 15.8-34.8 34.3-34.8s34.7 17 34.7 35.3c0 .8-.1 1.7-.1 2.5zm51.6-7.6c-2.4-13.3-12.9-22.6-26-22.6s-23.3 8.9-25.6 22.6zm71.3 37.7v-37c0-14.8-9-23.3-20.6-23.3s-20.7 9.8-20.7 22.7V302h-8.4v-66.2h8.4v8.4h.3c4.2-6.4 11.7-10.1 20.3-10.1 18.3 0 29.2 12.6 29.2 30.9v37z"/></svg>