<svg xmlns="http://www.w3.org/2000/svg" width="190" height="156" viewBox="0 0 190 156"><path d="M6.2 56l15.5 4.4.6-.7C5.7 45.3 2.2 28.2 11.1 7.3c21.8 24.8 48.3 39.2 81.2 41.3 0-5.2-.4-10 .1-14.8 1.8-17.3 18-32.2 35.3-33.2 11.3-.7 21.3 2.1 29.7 9.8a6.2 6.2 0 0 0 6.9 1.3L180 5.8l4.8-2.1c-2.8 8.8-8.5 14.7-14.8 20.2l.5.9 19.2-5.2c-1.3 1.9-2.2 3.4-3.3 4.7-3 3.2-5.6 7-9.1 9.4-5.4 3.7-6.5 8.5-6.8 14.6a110.1 110.1 0 0 1-23.4 65.2q-32.2 41.5-85.2 42.7c-20.6.4-39.6-3.9-57.6-13.7a21.8 21.8 0 0 1-4.7-3.2c20.5 1.1 39.1-3.7 56.3-16.5-17.7-2.3-29.8-10.7-36.4-27.8h16C15.8 86.3 4.6 71.5 6.2 56z"/></svg>