<svg xmlns="http://www.w3.org/2000/svg" width="235" height="167" viewBox="0 0 235 167"><path d="M235 73.9v20.8c-.1.6-.1 1.1-.2 1.7-.6 9.9-1.1 19.9-2 29.9a46.8 46.8 0 0 1-13.5 28.9c-5 5.1-11 8.7-18.4 9.1-9.2.6-18.5 1.3-27.7 1.6-17.9.5-35.7 1-53.6 1.1-27.2.2-54.4-.8-81.5-2.5a54.7 54.7 0 0 1-10-1.3c-5.2-1.3-9.4-4.6-13.1-8.6-7.6-8.5-11.5-18.5-12.6-29.7S.7 102.4.5 91.2c-.3-16 .6-31.9 1.8-47.8a50.7 50.7 0 0 1 7-22.7c6-10.2 14.2-17.1 26.6-17.6s21.8-1.5 32.6-1.8C84.6.8 100.7.4 116.7.4q43.8 0 87.4 3.2a24.6 24.6 0 0 1 13.1 4.5c5.7 4 9.4 9.6 12.1 15.9s3.8 13.7 4.2 20.8c.6 9.1.9 18.2 1.3 27.3.1.6.1 1.2.2 1.8zM88.6 125c2.7-.9 72.2-41.2 72.9-42.1L88.6 41.2z"/></svg>